<svg xmlns="http://www.w3.org/2000/svg" xmlns:xlink="http://www.w3.org/1999/xlink" id="Layer_1" x="0" y="0" version="1.1" viewBox="0 0 64 64" style="enable-background:new 0 0 64 64" xml:space="preserve"><style type="text/css">.st0{display:none;fill:#2b3544}.st1{fill:#e0e0d1}.st2{opacity:.2;fill:#231f20}.st3{fill:#4f5d73}.st4{opacity:.2}.st5{fill:#231f20}.st6{fill:none;stroke:#c75c5c;stroke-miterlimit:10}.st6,.st7{stroke-width:4}.st7,.st8{stroke:#c75c5c;stroke-miterlimit:10}.st7{fill:#c75c5c}.st8{fill:#f5cf87;stroke-width:2}</style><rect width="608" height="1984" x="-223" y="-1765" class="st0"/><circle cx="32" cy="32" r="32" class="st1"/><g><path d="M20,50c0,1.1-0.9,2-2,2h-2c-1.1,0-2-0.9-2-2V39c0-1.1,0.9-2,2-2h2c1.1,0,2,0.9,2,2V50z" class="st2"/><path d="M50,50c0,1.1-0.9,2-2,2h-2c-1.1,0-2-0.9-2-2V39c0-1.1,0.9-2,2-2h2c1.1,0,2,0.9,2,2V50z" class="st2"/><path d="M20,48c0,1.1-0.9,2-2,2h-2c-1.1,0-2-0.9-2-2V37c0-1.1,0.9-2,2-2h2c1.1,0,2,0.9,2,2V48z" class="st3"/><path d="M50,48c0,1.1-0.9,2-2,2h-2c-1.1,0-2-0.9-2-2V37c0-1.1,0.9-2,2-2h2c1.1,0,2,0.9,2,2V48z" class="st3"/><g class="st4"><path d="M44,37H20c-3.3,0-6-2.7-6-6l0-0.4l2-10.1C17,17,19.2,15,22,15h20c2.8,0,5,2,5.9,5.5l0,0.1L50,31 C50,34.3,47.3,37,44,37z M18,31.2c0.1,1,0.9,1.8,2,1.8h24c1,0,1.9-0.8,2-1.8l-1.9-9.7C43.8,20.7,43.2,19,42,19H22 c-1.2,0-1.8,1.7-2.1,2.5L18,31.2z" class="st5"/></g><path d="M48,29c0,2.2-1.8,4-4,4H20c-2.2,0-4-1.8-4-4l2-10c0.5-2,1.8-4,4-4h20c2.2,0,3.5,2,4,4L48,29z" class="st6"/><g class="st4"><path d="M52,42c0,2.2-1.8,4-4,4H16c-2.2,0-4-1.8-4-4v-5c0-2.2,1.8-4,4-4h32c2.2,0,4,1.8,4,4V42z" class="st5"/><path d="M48,48H16c-3.3,0-6-2.7-6-6v-5c0-3.3,2.7-6,6-6h32c3.3,0,6,2.7,6,6v5C54,45.3,51.3,48,48,48z M16,35 c-1.1,0-2,0.9-2,2v5c0,1.1,0.9,2,2,2h32c1.1,0,2-0.9,2-2v-5c0-1.1-0.9-2-2-2H16z" class="st5"/></g><path d="M52,40c0,2.2-1.8,4-4,4H16c-2.2,0-4-1.8-4-4v-5c0-2.2,1.8-4,4-4h32c2.2,0,4,1.8,4,4V40z" class="st7"/><path d="M21,38c0,2.2-1.8,4-4,4l0,0c-2.2,0-4-1.8-4-4l0,0c0-2.2,1.8-4,4-4l0,0C19.2,34,21,35.8,21,38L21,38z" class="st8"/><path d="M51,38c0,2.2-1.8,4-4,4l0,0c-2.2,0-4-1.8-4-4l0,0c0-2.2,1.8-4,4-4l0,0C49.2,34,51,35.8,51,38L51,38z" class="st8"/></g></svg>